<?xml version="1.0" standalone="no"?>
<!DOCTYPE svg PUBLIC "-//W3C//DTD SVG 20010904//EN"
 "http://www.w3.org/TR/2001/REC-SVG-20010904/DTD/svg10.dtd">
<svg version="1.0" xmlns="http://www.w3.org/2000/svg"
 width="700.000000pt" height="700.000000pt" viewBox="0 0 700.000000 700.000000"
 preserveAspectRatio="xMidYMid meet">
<metadata>
Created by potrace 1.14, written by Peter Selinger 2001-2017
</metadata>
<g transform="translate(0.000000,700.000000) scale(0.100000,-0.100000)"
fill="#000000" stroke="none">
<path d="M3250 6984 c-138 -12 -323 -39 -452 -65 -1360 -275 -2443 -1358
-2717 -2717 -55 -273 -65 -380 -65 -702 0 -322 10 -429 65 -702 274 -1359
1359 -2443 2717 -2717 484 -98 999 -93 1471 13 327 74 666 205 946 365 938
537 1576 1460 1735 2511 45 298 51 680 15 960 -103 796 -461 1516 -1032 2071
-548 533 -1231 862 -2003 964 -119 16 -571 28 -680 19z m601 -962 c117 -76
187 -144 260 -251 51 -75 61 -111 33 -111 -15 0 -16 -8 -9 -57 15 -99 11 -125
-28 -207 -48 -102 -141 -231 -241 -334 -146 -151 -146 -151 -358 21 -89 73
-191 152 -224 175 -67 45 -79 63 -63 93 11 22 404 628 451 697 20 28 36 42 52
42 12 0 69 -31 127 -68z m414 -1078 c145 -95 218 -173 284 -301 25 -50 27 -67
6 -59 -13 4 -14 -1 -8 -37 24 -131 -2 -210 -124 -385 -117 -168 -250 -292
-312 -292 -11 0 -101 64 -199 143 -98 79 -199 158 -225 175 -56 39 -69 59 -55
87 18 33 449 698 466 718 27 30 63 20 167 -49z m-918 -55 c184 -122 277 -239
304 -382 12 -68 -7 -170 -47 -248 -78 -156 -266 -381 -357 -429 -41 -22 -45
-22 -75 -8 -17 9 -79 56 -137 104 -59 49 -155 125 -213 170 -59 44 -108 88
-110 97 -3 15 450 718 486 753 7 8 19 14 27 14 7 0 62 -32 122 -71z m567
-1325 c20 -20 21 -19 -9 -198 -170 -1013 -350 -1647 -539 -1904 -55 -74 -140
-139 -251 -192 -281 -133 -817 -273 -884 -231 -44 28 53 136 298 334 486 390
666 557 781 727 101 149 180 357 376 999 115 374 140 440 175 465 29 20 34 20
53 0z"/>
</g>
</svg>
