<svg xmlns="http://www.w3.org/2000/svg" xmlns:xlink="http://www.w3.org/1999/xlink" viewBox="0 0 943.32 782"><defs><style>.cls-1{opacity:0.36;}.cls-2,.cls-6,.cls-7{stroke:#000;}.cls-2,.cls-4,.cls-6,.cls-7{stroke-miterlimit:10;}.cls-2{stroke-width:18px;fill:url(#radial-gradient);}.cls-3{fill:url(#radial-gradient-2);}.cls-4{fill:none;stroke:#fffbfb;}.cls-4,.cls-6{stroke-width:4px;}.cls-5{fill:#36cc00;}.cls-6,.cls-7{fill:#fff;}.cls-7{stroke-width:2px;}</style><radialGradient id="radial-gradient" cx="391" cy="391" r="382" gradientUnits="userSpaceOnUse"><stop offset="0" stop-color="#04a052"/><stop offset="0.24" stop-color="#049b4f"/><stop offset="0.55" stop-color="#028b48"/><stop offset="0.9" stop-color="#01713b"/><stop offset="1" stop-color="#006837"/></radialGradient><radialGradient id="radial-gradient-2" cx="596.85" cy="519.76" r="11.86" gradientUnits="userSpaceOnUse"><stop offset="0.29" stop-color="#04a052"/><stop offset="0.61" stop-color="#03964d"/><stop offset="0.91" stop-color="#028846"/></radialGradient></defs><g id="Layer_7" data-name="Layer 7"><path d="M1092.05,153.45a.29.29,0,0,0,0,.57A.29.29,0,0,0,1092.05,153.45Z" transform="translate(-149 -149)"/></g><g id="Layer_6" data-name="Layer 6"><circle class="cls-2" cx="391" cy="391" r="382"/><path d="M724.61,515.49c-1.24-6.5-9.72-11.25-15.9-9-8.33,3-13,10-18.21,16.8-4,5.22-7.68,10.56-11.28,16.07-7.14,10.93-14.49,21.75-21.35,32.85-13.71,22.23-27.13,44.55-40.15,67.19-5.84,10.15-2.7,25,8,30.62s24.47,2.86,30.62-8c12.85-22.75,25.23-45.68,37.37-68.81,6.08-11.57,11.64-23.42,17.42-35.15,3.19-6.49,6.2-13,8.89-19.69C723,530.83,726.18,523.75,724.61,515.49Z" transform="translate(-149 -149)"/><path d="M636.66,520c-1.2-6.29-9.4-10.89-15.38-8.73-8.06,2.91-12.58,9.72-17.61,16.26-3.88,5.05-7.43,10.22-10.91,15.55-6.9,10.58-14,21-20.64,31.8-13.26,21.51-26.24,43.11-38.83,65-5.65,9.82-2.62,24.15,7.76,29.64s23.67,2.76,29.62-7.78c12.42-22,24.39-44.2,36.14-66.59,5.87-11.2,11.26-22.67,16.84-34,3.09-6.28,6-12.55,8.6-19.06C635.15,534.83,638.18,528,636.66,520Z" transform="translate(-149 -149)"/><path d="M535.83,515.49c-1.24-6.5-9.71-11.25-15.89-9-8.34,3-13,10-18.21,16.8-4,5.22-7.69,10.56-11.29,16.07-7.13,10.93-14.49,21.75-21.34,32.85C455.39,594.42,442,616.74,429,639.38c-5.84,10.15-2.71,25,8,30.62,10.59,5.6,24.47,2.86,30.62-8,12.85-22.75,25.22-45.68,37.37-68.81,6.07-11.57,11.64-23.42,17.42-35.15,3.19-6.49,6.2-13,8.89-19.69C534.27,530.83,537.41,523.75,535.83,515.49Z" transform="translate(-149 -149)"/><path d="M452,515.49c-1.24-6.5-9.72-11.25-15.9-9-8.33,3-13,10-18.21,16.8-4,5.22-7.68,10.56-11.28,16.07-7.14,10.93-14.49,21.75-21.35,32.85-13.71,22.23-27.13,44.55-40.15,67.19-5.84,10.15-2.7,25,8,30.62s24.47,2.86,30.62-8c12.85-22.75,25.23-45.68,37.37-68.81,6.08-11.57,11.65-23.42,17.42-35.15,3.19-6.49,6.2-13,8.89-19.69C450.43,530.83,453.57,523.75,452,515.49Z" transform="translate(-149 -149)"/><path d="M712.68,469.31l0-.15a20.17,20.17,0,0,0-2.76-10.22,19.5,19.5,0,0,0-20.17-9.66,15.11,15.11,0,0,0-7.52,2.4,20.37,20.37,0,0,0-7.26,7.26c-1.75,3.91-2.91,6-2.81,10.44a24.29,24.29,0,0,0,.75,5.62,1.15,1.15,0,0,0,.06.17l2,4.82,0,.08a29.75,29.75,0,0,0,3.33,4.34,22.33,22.33,0,0,0,14.22,5.89l5.34-.72a15.16,15.16,0,0,0,6.84-3.59,10.12,10.12,0,0,0,3.6-3.61,15.08,15.08,0,0,0,3.6-6.84l.72-5.34C712.71,469.9,712.69,469.61,712.68,469.31Z" transform="translate(-149 -149)"/><path d="M636.74,519.68c0-.1,0-.2,0-.3a40.35,40.35,0,0,0-5.55-20.51,45.42,45.42,0,0,0-24.29-18.68,30.8,30.8,0,0,0-16.2-.73,30.28,30.28,0,0,0-15.11,4.83,40.75,40.75,0,0,0-14.58,14.58c-3.52,7.84-5.84,12-5.65,20.94a48.79,48.79,0,0,0,1.51,11.29c0,.12.08.23.12.35l4.08,9.67.08.17c1.78,3.2,4.35,5.92,6.69,8.72a44.91,44.91,0,0,0,28.55,11.83l10.73-1.44a30.43,30.43,0,0,0,13.73-7.23,20.26,20.26,0,0,0,7.24-7.24,30.43,30.43,0,0,0,7.23-13.73l1.44-10.73C636.8,520.87,636.76,520.28,636.74,519.68Z" transform="translate(-149 -149)"/><path d="M759.76,469.31l0-.15A20.18,20.18,0,0,0,757,458.94a22.73,22.73,0,0,0-12.09-9.3,15.39,15.39,0,0,0-8.07-.36,15.11,15.11,0,0,0-7.52,2.4,20.37,20.37,0,0,0-7.26,7.26c-1.76,3.91-2.91,6-2.82,10.44A24.3,24.3,0,0,0,720,475a1.15,1.15,0,0,0,.06.17c.67,1.61,1.35,3.21,2,4.82a.59.59,0,0,0,0,.08,28.42,28.42,0,0,0,3.33,4.34,22.34,22.34,0,0,0,14.21,5.89l5.35-.72a15.17,15.17,0,0,0,6.83-3.59,10.07,10.07,0,0,0,3.61-3.61,15.08,15.08,0,0,0,3.6-6.84l.72-5.34C759.79,469.9,759.77,469.61,759.76,469.31Z" transform="translate(-149 -149)"/><path d="M737.19,427.58l0-.15a20.06,20.06,0,0,0-2.77-10.22,22.6,22.6,0,0,0-12.09-9.3,15.39,15.39,0,0,0-8.07-.36,15,15,0,0,0-7.52,2.4,20.37,20.37,0,0,0-7.26,7.26c-1.76,3.91-2.91,6-2.82,10.43a24.15,24.15,0,0,0,.76,5.62,1.27,1.27,0,0,0,.06.18c.67,1.6,1.35,3.21,2,4.81a.36.36,0,0,0,0,.09,28.92,28.92,0,0,0,3.33,4.34,22.34,22.34,0,0,0,14.21,5.89l5.35-.72a15.18,15.18,0,0,0,6.84-3.6,10,10,0,0,0,3.6-3.6,15.08,15.08,0,0,0,3.6-6.84l.72-5.34C737.22,428.17,737.2,427.87,737.19,427.58Z" transform="translate(-149 -149)"/><path d="M388.56,520.31l0-.16a20.14,20.14,0,0,0-2.76-10.21,19.5,19.5,0,0,0-20.17-9.66,15,15,0,0,0-7.52,2.4,20.37,20.37,0,0,0-7.26,7.26c-1.75,3.91-2.91,6-2.81,10.43a24.14,24.14,0,0,0,.75,5.62,1.27,1.27,0,0,0,.06.18c.68,1.6,1.35,3.21,2,4.81l0,.08a29.84,29.84,0,0,0,3.33,4.35,22.33,22.33,0,0,0,14.22,5.89l5.34-.72a15.08,15.08,0,0,0,6.84-3.6,10.12,10.12,0,0,0,3.61-3.6,15.26,15.26,0,0,0,3.59-6.84l.72-5.35C388.59,520.9,388.57,520.6,388.56,520.31Z" transform="translate(-149 -149)"/><path d="M598,430.89c-.68-8.83-7.31-14.2-15.19-16.41-9.69-2.72-15.5,5.08-20.47,11l-.16.19-1.58,1.11-1.61.71c-1,.45-2,.94-3,1.33l-.4.15c-1.16.14-2.3.39-3.47.5-.49.05-1,.06-1.47.09-1.18-.11-2.58,0-3.59-.13-3.11-.31-6.21-.82-9.29-1.4-6.08-1.14-12.17-2.28-18.32-3-15.12-1.71-29.72-.29-43.12,7.21a60.22,60.22,0,0,0-16.16,13.24,37.44,37.44,0,0,0-6.26,9.86c-2.11,5-2.2,9.17-1.88,14.49.8,13.33,17,18.36,27,11.58-5,3.41,1.36-.63,3-2a51.8,51.8,0,0,0,5.9-5.66c.73-.83,1.47-1.66,2.19-2.5.24-.21.48-.42.73-.61s1.41-1.19,2.4-1.92c.53-.28,1.06-.55,1.61-.8,1.21-.55,2.47-.95,3.71-1.45h0c1.6-.12,3.25-.37,4.84-.57l.59-.07.3,0c3.26.28,6.49.68,9.71,1.28,6.61,1.23,13.06,3.06,19.72,4,15.49,2.3,33.76,2.05,46.9-7.7a48.22,48.22,0,0,0,14.82-17.89A31.3,31.3,0,0,0,598,430.89Z" transform="translate(-149 -149)"/><path class="cls-3" d="M596.85,507.7c-15.53,0-15.55,24.12,0,24.12S612.4,507.7,596.85,507.7Z" transform="translate(-149 -149)"/><circle class="cls-4" cx="391" cy="390" r="366"/><path d="M285.31,682.13c-15.05-4.94-28.56-17.15-36.55-30.66-8.53-14.39-14.26-30.37-18.41-46.53-8-31.23-8.15-63.79-2.08-95.36,3.44-17.89,8.58-35.16,16.65-51.53a.27.27,0,0,0-.49-.24c-7.9,14.58-14.74,30.23-19,46.26a202.21,202.21,0,0,0-6.58,49.39,214,214,0,0,0,5.3,50.13c3.77,16.59,9.36,33.87,19.14,48,5.24,7.56,11.19,14.66,18.46,20.35a61.39,61.39,0,0,0,23.41,11.13C285.73,683.19,285.86,682.31,285.31,682.13Z" transform="translate(-149 -149)"/><path d="M793.71,383.93c15,5.16,28.31,17.56,36.11,31.18,8.32,14.51,13.82,30.57,17.74,46.79,7.56,31.34,7.24,63.9.71,95.38-3.69,17.84-9.08,35-17.38,51.29-.16.31.31.54.48.24,8.1-14.46,15.17-30,19.68-46a201.78,201.78,0,0,0,7.29-49.29,213.81,213.81,0,0,0-4.58-50.2c-3.53-16.64-8.88-34-18.45-48.25-5.13-7.63-11-14.82-18.17-20.61A61.21,61.21,0,0,0,793.9,383C793.3,382.86,793.16,383.74,793.71,383.93Z" transform="translate(-149 -149)"/><path d="M751.07,699.18a76.73,76.73,0,0,0,6.32-6.45c6.63-4.51,15.49-6,23.05-7.83a110.63,110.63,0,0,0,32.17-13.08c20.21-12.3,36.42-31.28,44.32-53.66a103,103,0,0,0,5.9-40c-.05-1-1.43-.83-1.46.09-.79,25-9.84,49.79-26.16,68.84-15.63,18.23-36.33,29.13-59.46,34.58a98.57,98.57,0,0,0-12.65,3.64c20.21-29.49,20.63-69.83,39.17-100.55,6.3-10.44,14.67-17.95,24.38-25.12,1.53-1.13.37-3.78-1.53-3.06-18.77,7-29.92,28.31-36.63,45.92-7.81,20.51-11.28,42.41-19.73,62.7A92.32,92.32,0,0,1,753.7,690.4a26.69,26.69,0,0,0-5.72,5.93l-.08.07h0c-.11.15-.22.29-.32.44C746.16,699,749.46,700.63,751.07,699.18Z" transform="translate(-149 -149)"/><path d="M322,360.05a75.22,75.22,0,0,0-6.32,6.45c-6.63,4.51-15.49,6-23.05,7.83a110.91,110.91,0,0,0-32.17,13.08c-20.21,12.3-36.42,31.28-44.33,53.66a103.21,103.21,0,0,0-5.89,40c.05,1,1.43.83,1.46-.1.79-25,9.84-49.79,26.16-68.83,15.63-18.24,36.33-29.14,59.45-34.58A99.91,99.91,0,0,0,310,373.89c-20.21,29.49-20.63,69.83-39.18,100.55-6.3,10.44-14.66,18-24.37,25.12-1.53,1.13-.37,3.78,1.53,3.07,18.77-7,29.92-28.32,36.62-45.92,7.82-20.52,11.28-42.42,19.74-62.71a92.54,92.54,0,0,1,15.05-25.17,26.46,26.46,0,0,0,5.73-5.92l.08-.08h0c.11-.15.22-.28.32-.44C326.9,360.22,323.6,358.6,322,360.05Z" transform="translate(-149 -149)"/><path class="cls-5" d="M232.72,473.68c-1.71-6.58-3.81-13.11-4.41-19.91s.22-13.65,1.36-20.43a.19.19,0,0,0-.36-.1c-3.61,12.76-3.55,28.84,2.16,41C231.81,474.93,232.92,474.41,232.72,473.68Z" transform="translate(-149 -149)"/><path class="cls-5" d="M245.56,417c0-.6-1-.79-1.11-.15-1.94,9-1,18.57.29,27.63.1.72,1.35.56,1.29-.18C245.24,435.19,246,426.13,245.56,417Z" transform="translate(-149 -149)"/><path class="cls-5" d="M271.87,392.41c-8.34,7.07-12.43,17.87-13.25,28.55-.06.8,1.27,1,1.41.19,2-10.53,6.83-19.28,12.82-28C273.28,392.55,272.38,392,271.87,392.41Z" transform="translate(-149 -149)"/><path class="cls-5" d="M273.54,466.49c-7.85,4.21-15.6,7.63-24.63,8.06a.75.75,0,0,0,0,1.5c9.23.23,18.59-2.07,25.31-8.68A.56.56,0,0,0,273.54,466.49Z" transform="translate(-149 -149)"/><path class="cls-5" d="M271.56,443.44c-5.9,2.56-11.43,5.64-17.53,7.75-.79.27-.47,1.53.35,1.27,6.1-1.95,12.51-4.29,17.65-8.21A.47.47,0,0,0,271.56,443.44Z" transform="translate(-149 -149)"/><path class="cls-5" d="M280.88,419.48a24.62,24.62,0,0,1-12.26,6.85c-.47.1-.27.81.2.72a20.36,20.36,0,0,0,12.42-7.22C281.44,419.59,281.11,419.25,280.88,419.48Z" transform="translate(-149 -149)"/><path class="cls-5" d="M837.24,579.64a63.28,63.28,0,0,0-29,14c-.69.59.19,1.65.94,1.22a166.68,166.68,0,0,1,28.69-13.13A1.09,1.09,0,0,0,837.24,579.64Z" transform="translate(-149 -149)"/><path class="cls-5" d="M820.58,608.82c-7.25,4.81-15,8.79-22.45,13.23-.65.38-.23,1.52.53,1.26,8.36-3,15.7-7.8,22.68-13.19C822.08,609.55,821.41,608.28,820.58,608.82Z" transform="translate(-149 -149)"/><path class="cls-5" d="M804.06,635.77c-5.61,2.16-11.43,4.05-16.76,6.87a.41.41,0,0,0,.31.74c5.76-1.61,11.24-4.24,16.75-6.53C805,636.58,804.74,635.5,804.06,635.77Z" transform="translate(-149 -149)"/><path class="cls-5" d="M811.65,650.11c-3.59,7-8.43,13.06-12.42,19.76a.63.63,0,0,0,1,.76c5.92-5.3,9.6-12.8,12.58-20C813.06,649.94,812,649.49,811.65,650.11Z" transform="translate(-149 -149)"/><path class="cls-5" d="M825.82,635c-.05-.59-1-.61-.94,0,.12,4.6-.59,9.08-.88,13.65,0,.55.77.61.92.13C826.32,644.32,826.2,639.6,825.82,635Z" transform="translate(-149 -149)"/><path class="cls-5" d="M844.44,601.81c-.15-.65-1.05-.36-1,.26,1.51,10.48-1.26,19.24-4,29.16a.75.75,0,0,0,1.37.58C846.79,623.39,846.71,611.4,844.44,601.81Z" transform="translate(-149 -149)"/><path class="cls-5" d="M825.33,616.4c-7.65,13.85-16,25.84-28.66,35.64-.45.36.13,1.07.61.79,13.2-7.83,25-21,29-36A.51.51,0,0,0,825.33,616.4Z" transform="translate(-149 -149)"/><path class="cls-5" d="M283.09,401.46a96.9,96.9,0,0,0-29.64,40.85c-.2.52.68.9.91.39a129,129,0,0,1,29.44-40.53C284.28,401.72,283.58,401.07,283.09,401.46Z" transform="translate(-149 -149)"/><path class="cls-5" d="M565,706.39c-9.6-1.59-20.07-.54-29.78-.49s-19.93-.56-29.56,1.27a.63.63,0,0,0,0,1.21c9.63,1.84,19.79,1.22,29.56,1.27s20.18,1.11,29.78-.49A1.45,1.45,0,0,0,565,706.39Z" transform="translate(-149 -149)"/><path class="cls-5" d="M548.36,715.1a53.94,53.94,0,0,0-22.87.33.6.6,0,0,0,0,1.15,53.94,53.94,0,0,0,22.87.33A1,1,0,0,0,548.36,715.1Z" transform="translate(-149 -149)"/><path class="cls-5" d="M540.12,723.28c-1.24-1.19-2.93-.73-4.53-.63-1.85.11-3.65.41-5.49.67a.6.6,0,0,0,0,1.15c1.84.27,3.64.56,5.49.67,1.6.1,3.29.56,4.53-.63A.87.87,0,0,0,540.12,723.28Z" transform="translate(-149 -149)"/><path class="cls-5" d="M570,386.58c-9.6,1.6-20.07.54-29.78.49s-19.93.56-29.56-1.27a.63.63,0,0,1,0-1.21c9.63-1.83,19.79-1.22,29.56-1.27s20.18-1.11,29.78.49A1.45,1.45,0,0,1,570,386.58Z" transform="translate(-149 -149)"/><path class="cls-5" d="M553.36,377.87a53.94,53.94,0,0,1-22.87-.33.6.6,0,0,1,0-1.15,53.94,53.94,0,0,1,22.87-.33A1,1,0,0,1,553.36,377.87Z" transform="translate(-149 -149)"/><path class="cls-5" d="M545.12,369.69c-1.24,1.19-2.93.73-4.53.63-1.85-.11-3.65-.4-5.49-.67a.6.6,0,0,1,0-1.15c1.84-.26,3.64-.56,5.49-.67,1.6-.1,3.29-.56,4.53.63A.87.87,0,0,1,545.12,369.69Z" transform="translate(-149 -149)"/><path class="cls-6" d="M735.49,326.31c-4.52,5.74-12.07,5.93-18.75,5.44-20.92-1.5-41.76-3.46-62.72-4.5q-32.13-1.61-64.32-1.6c-17.85,0-35.71.57-53.55.51a81.2,81.2,0,0,0-9.22,4.3c-6.86,3.73-13.23,8.38-20.52,11.29-7.54,3-15.65,4.06-23.71,4.22-16.58.34-33.44-1.53-49.9-3.32-32.19-3.51-64.42-9.81-92.87-26a1.6,1.6,0,0,1,.81-3c48.88-.57,97.76-1.29,146.65-1.77q64.76-.65,129.51-1.41,32.65-.36,65.3-.7l32.12-.3c6.35-.06,15.1-1.36,20.43,3.07C739.1,316.21,738.81,322.09,735.49,326.31Z" transform="translate(-149 -149)"/><path class="cls-7" d="M724,770.85c-14.32,3.85-30.24,4.72-45,6.62a198.78,198.78,0,0,1-23,1.85,98.77,98.77,0,0,1-13.1-.29c-8.87,2-19,2.82-27.25-1.32A22.56,22.56,0,0,1,604.77,766L603,764.36c-.7-.48-1.41-1-2.14-1.4-74.44,2.22-148.91,3.35-223.36,5.06-7.77.17-15.89,1.08-23.62.23-5.22-.57-10.9-2.85-12.15-8.21-3.57-15.24,19.18-14.56,28.55-14.33l115.83,2.94,63.83,1.61c10.79.27,21.59.65,32.38.94,8.45.23,18.15.34,23.87-6.49A23.53,23.53,0,0,1,616,734c10.37-5.49,22.31-1.45,33.19-.27a2.94,2.94,0,0,1,1,.23c5.69-.15,11.56.33,16.85.62,9.18.5,18.27,1.68,27.37,2.87,9.8,1.28,20.13,2.12,29.49,5.26a.84.84,0,0,1-.23,1.65c-14.55.36-29.27-2.2-43.86-2.42-7-.1-13.94-.28-20.9-.48-3.88-.11-7.75-.28-11.62-.57-3.29-.24-8.29-1.6-10.29,1.6a.64.64,0,0,1-1,.12h0c-.13,1.33-.18,2.67-.23,4,3.83-.7,8.65,0,11.72,0,8.59.21,17.17.43,25.77.58,16.17.27,33.44-1.21,49.34,1.67a.49.49,0,0,1,0,1c-15.86,3-33.18,1.65-49.34,2q-12.89.23-25.77.53c-3.17.07-8.3.76-12.22-.12-.34,1.74-.78,3.19-.24,5.1a6.72,6.72,0,0,0,.76,1.48c3.45-.28,7.31.21,9.91.28,8.59.21,17.17.43,25.77.57,16.17.28,33.44-1.2,49.34,1.68a.49.49,0,0,1,0,1c-15.86,3-33.18,1.65-49.34,1.94q-12.9.24-25.77.54c-2.57.05-6.43.52-9.87.22,0,0,0-.1,0-.14a.74.74,0,0,1,0,.14h.09l.09.25a5.39,5.39,0,0,1-.58,4.74c.14,1.31.42,2.59.68,3.86,6.48-2.5,14.18-2,21.06-2.25,7.3-.27,14.56-.11,21.85-.23,15-.25,29.72-2.66,44.6-3.16A1.34,1.34,0,0,1,724,770.85Z" transform="translate(-149 -149)"/><path class="cls-7" d="M635.92,765h-.09a.74.74,0,0,0,0-.14S635.9,765,635.92,765Z" transform="translate(-149 -149)"/><path class="cls-7" d="M635.92,765h-.09a.74.74,0,0,0,0-.14S635.9,765,635.92,765Z" transform="translate(-149 -149)"/></g></svg>